<?xml version="1.0" encoding="utf-8"?>
<svg version="1.1" xmlns="http://www.w3.org/2000/svg" xmlns:xlink="http://www.w3.org/1999/xlink" x="0px" y="0px"
	 viewBox="0 0 123 134" style="enable-background:new 0 0 123 134;" xml:space="preserve">
<style type="text/css">
	.st0{fill:#FF7847;}
</style>
<path class="st0" d="M103.83,99.64c-0.19,0.19-0.4,0.34-0.65,0.46l-51.13,24.64c-1.05,0.51-2.31,0.18-2.99-0.78
			c-0.67-0.95-0.55-2.24,0.27-3.06c0.01-0.01,0.01-0.01,0.02-0.02l33.56-32.9L15.75,43.18C14.7,42.48,14.38,41.09,15,40
			c0.63-1.09,1.99-1.5,3.12-0.95l64.32,31.71l4.43-52.12c0.11-1.2,1.08-2.13,2.28-2.18c1.2-0.04,2.25,0.81,2.44,2l12.89,79.1
			C104.62,98.34,104.36,99.11,103.83,99.64z"/>

</svg>
